<svg xmlns="http://www.w3.org/2000/svg" role="img" viewBox="67.12 -5.13 154.52 267.02"><g><path d="M1501 2938 c1 -35 -6 -103 -15 -153 -27 -147 -26 -145 -13 -139 7 2 13 27 15 57 4 76 22 157 35 158 7 1 16 1 21 0 5 -1 6 4 3 12 -3 8 -8 39 -12 70 -5 38 -12 57 -21 57 -10 0 -13 -16 -13 -62z" transform="matrix(.1 0 0 -.1 0 300)"/><path d="M1525 2850c-4-6-2-17 5-25 7-8 7-16 1-19-5-3-9-21-9-40 0-19-3-48-7-65-4-18-3-31 3-31 14 0 28 22 30 45 0 11 5 42 10 68 8 38 7 51-5 62-17 18-20 18-28 5zM1201 2602c-38-4-81-28-81-46 0-7 3-7 8-1 4 6 14 11 22 12 37 6 101 21 106 25 8 9-19 14-55 10zM1079 2527c-7-12-13-31-15-43-1-17 3-21 21-20 19 1 21 4 14 28-6 21-4 30 8 36 14 8 13 10-1 15-10 4-20-2-27-16zM1498 2523c-6-16-12-35-13-44-1-9-5-21-9-28-4-7 0-11 11-11 15 0 16-2 3-10-12-8-13-13-2-30 11-18 10-20-9-20-20 0-21-4-17-45 7-54-15-83-27-38-5 16-8 31-7 36 1 4-2 7-6 7-5 0-12-3-16-7-8-8-13-9-42-12-8 0-12-6-9-11 3-6-1-17-9-26-9-8-16-22-16-29 0-8-6-12-14-9-8 3-17 1-21-5-3-6-1-11 4-11 13 0 14-10 3-28-5-7-16-10-25-6-9 3-14 11-10 17 3 6 1 7-5 3-17-10-15-23 9-47 16-16 23-18 35-8 8 6 14 17 14 25 0 29 84 133 97 120 5-4 8-32 8-61 0-29 3-57 8-61 4-4 7-22 7-41 0-32-23-66-51-75-19-6-22-78-3-78 10 0 13 7 9 23-4 16 0 28 11 38 16 13 17 11 10-26-4-22-13-43-18-46-14-9-38-79-27-79 5 0 9 5 9 10 0 6 6 5 14-2 8-7 14-15 13-18-1-3 4-15 11-28 7-12 10-27 7-32-3-5 3-8 14-7 23 1 46 70 39 112-3 14-1 25 4 25 5 0 4 9-2 20-9 16-8 20 7 21 11 0 13 3 6 6-7 2-13 12-14 21-2 45-18-29-18-85-1-105-17-120-45-44-16 45-16 52-2 80 9 16 16 39 16 51 0 14 5 20 18 18 14-2 18 6 22 45 6 53 7 55 33 40 19-10 17-35-8-95-5-13-2-18 9-18 9 0 16 3 17 8 0 4 2 17 3 30 2 12 8 28 13 33 11 11 21 3 68-56 9-11 14-14 10-7-8 16 3 15 20-2 8-7 11-17 7-21-4-5 1-5 12-1 14 5 17 2 12-9-3-9-2-14 3-11 11 7 23-22 15-35-3-5-11-6-17-2-7 4-5-1 3-11 9-12 16-14 18-7 3 9 7 9 17 1 8-6 12-17 10-23-3-7 0-19 5-27 18-27 30 8 14 39-8 14-14 31-14 36 0 27-89 117-177 180-92 66-109 85-84 93 6 2 11-7 11-19 0-22 0-22 14-3 11 14 13 36 9 83-5 52-3 66 10 76 12 9 16 26 14 71-1 32 1 71 6 87 5 17 4 27-3 27-6 0-16-12-22-27z" transform="matrix(.1 0 0 -.1 0 300)"/><path d="M1410 2465c0-8 31-34 41-35 3 0 6 7 6 15 0 8-4 15-8 15-4 0-14 3-23 6-9 3-16 3-16-1zM1046 2414c-4-10 3-25 16-39 13-13 34-37 48-54 26-34 40-39 40-16 0 8 4 15 9 15 5 0 4-13-2-30-10-25-9-32 7-43 13-9 16-19 11-28-8-12-6-12 8 0 17 14 24 37 8 27-5-3-11 4-15 17-10 38-7 50 12 45 10-3 19 0 19 6 0 6-10 12-21 13-12 1-30 4-41 7-11 2-22 5-25 5-3 1 2 5 10 11 12 7 11 10-5 15-38 12-50 22-53 44-4 25-17 28-26 5zM1073 2231c-25-13-26-15-8-21 25-9 85 9 79 24-6 16-38 15-71-3zM1199 2175c-1-11-2-26-2-32 1-7-4-10-10-6-6 4-8 0-4-9 3-9 0-21-6-27-7-7-7-11-1-11 6 0 20 17 32 39 24 42 27 56 13 47-5-4-12 0-14 6-3 8-6 5-8-7zM957 2120c-42-43-50-56-34-53 18 5 20 3 10-8-16-16-53-23-53-9 0 6-7 10-15 10-18 0-20-16-2-23 9-4 9-6 0-6-6-1-14 3-18 9-3 6-15 5-30-2-22-10-25-18-26-62-2-73-4-87-23-130-18-42-22-101-6-91 6 3 7-1 4-9-3-9-10-14-15-11-15 10-28-68-24-141 5-90 34-198 46-169 4 11 8 31 8 45-1 14-3 19-6 12-2-6-9-10-13-7-5 3-7 12-3 20 3 9 0 21-5 28-7 8-7 18-2 27 6 8 10 11 10 6 0-5 6-3 14 3 8 7 12 20 9 31-5 17-7 18-20 4-21-21-26-12-13 22 8 21 8 34-1 51-10 19-10 26 1 36 10 9 11 9 6 0-5-9-2-11 8-7 9 3 14 9 11 14-2 4 0 21 4 38 7 22 6 32-2 35-9 3-9 8 1 18 6 7 12 21 12 31 0 10 7 18 15 18 8 0 26 12 41 26 14 15 19 24 10 21-21-8-20 1 2 21 10 10 13 14 7 10-7-4-15-5-18-1-4 3-7 0-7-7 0-7-3-10-7-7-3 4-12 2-19-4-10-8-13-3-12 20 1 17 5 31 10 31 4 0 8-4 8-9 0-12 27-8 42 7 9 9 9 12 0 12-7 0-12-6-12-12-1-7-9-3-20 10-10 13-16 30-13 38 6 17 29 13 26-4-2-6 4-9 12-6 8 3 13 11 12 17-1 7 11 12 30 12 37 0 45 7 49 38 1 12 3 25 3 30 1 4 4 6 9 6 22-4 34 3 28 16-7 18 22 48 40 41 7-3 16-1 19 3 2 5-4 11-14 14-14 3-35-12-74-53z" transform="matrix(.1 0 0 -.1 0 300)"/><path d="M1026 2105c-37-35-32-41 9-9 19 14 35 28 35 30 0 11-20 1-44-21zM1043 2071c-13-11-23-26-23-35 0-9-5-16-12-16-6 0-9-3-5-6 3-3 16 1 29 10 12 9 17 16 10 16-7 0-11 4-7 10 3 5 11 7 18 4 7-2 13 4 14 16 2 24 3 24-24 1zM1213 2063c-17-13-17-14 0-9 12 4 21-2 29-19 12-26 31-36 22-11-7 19 11 29 37 21 14-5 19-13 16-26-3-10-1-17 4-13 5 3 9 12 9 19 0 9 6 12 15 9 8-4 15-2 15 4 0 12-22 21-69 28-20 3-41 7-48 9-6 2-19-3-30-12zM987 1986c12-16 28-24 46-24 15 1 25 3 22 6-3 3 0 11 6 19 9 10 5 10-17-2-26-13-30-13-46 5-26 28-33 25-11-4zM1523 1933c-17-3-23-11-23-30l0-26 23 21c13 12 27 19 31 15 4-4 4 0 0 10-3 9-7 16-8 16 0-1-11-4-23-6zM1330 1919c0-23 22-49 40-49 11 0 20 5 20 10 0 6-8 10-17 8-12-2-19 4-21 20-3 22-22 32-22 11zM1750 1877c0-17 37-56 96-103 39-31 40-32 52-135 27-216 76-357 157-454 23-27 52-69 65-93 22-40 23-46 11-90-22-78-24-89-13-72 5 8 20 51 32 95 18 66 20 94 15 160-9 105-56 332-92 441-36 111-87 168-194 218-94 45-129 53-129 33zm140-70c0-4 4-5 10-2 5 3 7 0 4-8-4-11 1-13 20-10 24 5 31-3 27-29 0-5 2-7 7-5 9 3 52-40 52-52 0-6 9-25 19-43 11-18 21-42 23-53 2-11 9-26 16-33 6-7 12-32 12-55 0-38-1-39-15-21-8 10-15 14-15 7 0-6 8-18 18-25 11-7 25-24 32-37 11-22 11-23-6-17-17 6-17 6-1-12 19-21 24-57 5-46-7 4-8 3-4-4 4-7 13-12 19-12 8 0 12-16 13-42 0-24 3-56 7-73 3-16 9-52 12-78 5-42 4-47-8-35-8 7-13 16-11 20 3 4-6 17-19 30-47 47-50 55-28 75 19 18 19 18-12 20-18 0-26-1-19-4 13-5 17-23 4-23-7 0-46 71-43 78 1 1-6 10-14 19-9 9-14 25-11 36 2 11-2 30-11 43-8 13-13 31-9 39 3 9-3 25-13 37-12 12-18 30-16 47 2 14 4 30 4 34 1 5 5 5 11 2 6-3 7 1 4 9-3 9-10 14-15 11-4-3-6 4-4 15 2 11-2 20-8 20-7 0-6 4 3 10 11 7 11 10 2 10-10 0-10 5-2 20 8 15 8 20-1 20-7 0-9 3-6 6 4 4-3 20-14 35-11 16-17 29-13 29 10 0-25 33-51 48-18 11-17 12 13 10 17-1 32-6 32-11z" transform="matrix(.1 0 0 -.1 0 300)"/><path d="M1986 1471c-8-12 3-41 15-41 5 0 9-7 9-15 0-18 16-20 26-3 4 7 3 8-4 4-7-4-12-1-12 7 0 8-7 18-16 21-9 4-14 13-10 21 6 16 0 20-8 6zM1640 1872c0-14 37-30 51-21 12 7 12 10 0 21-9 8-11 9-7 1 3-6 2-14-4-18-5-3-10 1-10 9 0 9-7 16-15 16-8 0-15-3-15-8zM848 1847c-15-12-15-15 4-37 18-23 19-24 8-2-14 28-4 48 16 31 12-10 13-9 8 5-7 19-13 20-36 3zM950 1840c0-8 24-20 40-20 4 0 10 6 13 14 4 9-4 13-24 14-16 0-29-3-29-8zM1708 1842c-20-4-24-17-8-27 6-3 10-1 10 4 0 6 7 11 15 11 12 0 15-10 13-41-1-22-5-42-9-45-11-6-29 28-29 53 0 4-5 2-11-4-12-12 14-73 30-73 5 0 7-9 4-20-3-11 0-20 6-20 6 0 10-3 9-7-4-18 15-62 26-60 10 2 14-25 17-108 1-29-19-95-21-70-1 20-1 20-10 0-5-11-9-14-9-7-1 7-6 10-11 7-7-4-7-12-2-18 4-7 8-16 7-22-2-18-35-75-44-75-5 0-12-11-15-25-4-16-11-22-21-19-8 4-15 1-15-5 0-6 5-11 10-11 6 0 10-4 10-10 0-5-7-10-16-10-8 0-12-4-9-10 3-5 1-10-6-10-9 0-9-3 0-14 10-11 6-20-16-40-33-31-41-32-60-8-11 12-14 13-11 2 6-19-29-54-35-37-3 8-11 6-26-7l-21-19 5 51c4 35 2 52-6 52-6 0-9 9-6 20 3 14 0 20-10 20-12 0-13 3-4 13 7 9 7 17 0 24-7 7-6 12 5 16 11 4 16 1 17-11 0-13 3-12 11 6 6 12 15 22 20 22 4 0 8 5 8 11 0 8-4 8-12 2-23-18-58-22-58-7 0 8 5 14 11 14 6 0 8 7 5 16-5 14-4 15 8 5 12-10 14-9 9 7-2 11 0 23 5 26 7 4 8 33 4 79-4 39-7 98-7 130 0 31-4 57-8 57-5 0-5 5-1 12 4 7 3 8-4 4-7-4-12-1-12 6 0 10-3 9-10-2-6-9-5-17 2-21 7-5 9-33 6-80-5-60-3-76 11-86 15-12 15-13 0-7-26 8-31-11-9-34 25-26 25-27-1-64-36-50-41-98-20-170 33-110 33-116 11-130-11-7-20-16-20-19 0-10 83 12 100 26 8 7 27 15 41 18 50 12 92 50 108 99 9 26 33 69 54 96 22 27 52 79 68 117 38 91 39 156 2 228-20 39-27 68-28 117-2 95 0 92-47 82zM1360 1813c0-5 15-31 33-59 32-50 32-50 52-31 17 17 17 19 3 14-10-4-18-2-18 2 0 5 6 11 12 13 8 3 4 9-9 17-20 10-22 9-16-6 5-16 3-15-14 2-12 11-21 22-21 25 0 21-3 30-12 30-5 0-10-3-10-7zM924 1768c7-23-10-33-22-12-8 15-10 15-15 0-4-10-3-15 3-11 6 3 13-1 16-9 5-13 10-11 26 10 11 14 18 28 14 31-3 4-6 0-6-8 0-12-2-11-11 1-9 13-10 12-5-2zM1222 1730c-23-27-42-52-42-57 0-7 16 10 81 85 6 7 9 15 7 17-2 2-23-18-46-45z" transform="matrix(.1 0 0 -.1 0 300)"/><path d="M1645 1681c-3-5-14-7-24-4-10 3-22 0-25-6-5-7 4-9 26-7 18 2 36-1 40-7 5-8 10-9 17-2 7 7 4 14-9 23-10 6-22 8-25 3zM916 1628c22-44 23-45 19-12-2 16-4 32-4 37-1 4-8 7-16 7-14 0-14-4 1-32zM1522 1620c-8-13-18-17-29-13-17 7-17 5 1-21 18-29 19-96 1-138-5-13-2-18 9-18 15 0 20 14 18 50-1 25 18 50 39 50 16 0 18 2 7 14-7 8-14 10-16 5-4-9-32 14-32 26 0 4 9 20 21 36 14 20 16 29 7 29-7 0-19-9-26-20zM805 1583c4-22 3-33-5-33-6 0-8-4-5-10 3-5-1-10-9-10-10 0-13-6-10-15 8-21 21-10 45 37 11 22 16 37 10 34-5-4-15 2-21 11-9 15-10 12-5-14zM1657 1589c-3-10-1-22 4-25 5-3 9 0 9 5 0 6 5 11 11 11 6 0 8-8 4-19-7-22 15-43 34-32 9 6 10 11 2 15-6 4-16 4-23 0-8-5-9-2-4 11 4 12 0 24-13 36-18 17-19 17-24-2zM1274 1461c-12-12 0-19 27-14 30 4 59-10 59-29 0-6-7-8-15-4-8 3-15 1-15-4 0-10-39-25-58-21-8 1-16-7-19-18-6-23-48-29-57-8-3 6-4 3-3-8 2-16-5-20-43-21-24-2-46-7-48-13-2-6-8-9-13-5-5 3-9-2-9-11 0-9-5-13-10-10-6 3-13-1-16-9-8-21-34-21-34 0 0 11-5 10-23-8-33-34-65-50-70-35-3 9-10 9-31-1-36-16-56-15-56 3 0 8-12 18-26 21-22 6-24 8-10 16 9 5 16 16 16 23 0 8 5 15 10 15 6 0 10-4 10-9 0-6-4-13-10-16-5-3-10-11-10-16 0-6 6-4 13 3 14 15 88 106 100 122 5 8 10 7 15-2 7-10 12-8 24 5 8 10 18 25 22 33 4 8-2 4-13-10-13-15-24-21-28-15-13 16-33 16-33 0 0-9-7-18-15-21-8-4-13-9-10-14 4-7-39-50-50-50-3 0-3 11 1 24 3 15-1 34-11 50-16 24-16 26-1 20 11-4 16-1 16 10 0 11-8 15-25 14-21-2-25-7-23-30 1-15 6-28 10-28 18 0 7-42-12-47-15-4-20-14-20-42 0-20 5-42 12-49 7-7 9-12 4-12-4 0 0-7 8-16 25-25 124-8 248 42 58 23 131 49 162 57 54 15 133 64 169 106 19 24 23 41 5 23-16-16-28-15-28 1 0 9-14 13-41 12-22 0-42-2-45-4zM1533 1062c-12-2-24-10-27-18-4-11 2-14 24-12 33 2 157-75 157-98 0-8-4-14-9-14-4 0-8-7-8-15 0-13 4-14 20-5 18 10 20 8 20-20 0-16 4-30 9-30 5 0 11-10 13-22 2-13 6-18 9-13 12 19-31 130-65 167-26 28-39 35-57 31-17-3-20-2-11 5 10 7 8 12-10 24-35 22-41 24-65 20zM1292 970c-24-23-29-42-9-34 14 5 41 44 34 50-2 2-13-5-25-16zM1734 775c11-8 16-15 10-15-5 0-10-19-11-43-2-32 0-37 7-21 4 12 10 36 12 55 2 27-1 34-17 37-20 3-20 3-1-13zM1227 693c-16-25 29-136 67-163 12-8 46-24 76-34 30-10 68-30 83-42 38-32 62-30 101 9 18 17 54 47 80 65 26 19 50 41 54 50 3 9 12 23 19 30 7 8 11 18 8 23-4 5-1 9 4 9 6 0 11 7 11 16 0 14-1 14-16 0-8-9-20-16-26-16-5 0-8-7-4-15 6-16-32-62-47-57-5 1-6-2-2-7 5-9-45-42-60-41-10 1-35-28-35-40 0-8-6-7-22 1-15 8-23 8-26 1-3-11-98 20-116 38-5 5-18 10-27 10-9 0-20 7-23 16-3 9-12 14-19 11-13-4-47 44-47 68 0 8-4 15-9 15-6 0-11 15-13 33-2 19-6 27-11 20z" transform="matrix(.1 0 0 -.1 0 300)"/></g></svg>